{
  "accessors": [
    {
      "bufferView": 2,
      "componentType": 5126,
      "count": 15366,
      "max": [
        0.9251619577407837,
        0.30547475814819336,
        1.4610108137130737
      ],
      "min": [
        -0.9251619577407837,
        -0.30547550320625305,
        -1.0858246088027954
      ],
      "type": "VEC3"
    },
    {
      "bufferView": 2,
      "byteOffset": 184392,
      "componentType": 5126,
      "count": 15366,
      "max": [
        1.0,
        0.9999459981918335,
        1.0
      ],
      "min": [
        -1.0,
        -0.9999459981918335,
        -1.0
      ],
      "type": "VEC3"
    },
    {
      "bufferView": 1,
      "componentType": 5126,
      "count": 15366,
      "max": [
        0.0,
        1.0
      ],
      "min": [
        0.0,
        1.0
      ],
      "type": "VEC2"
    },
    {
      "bufferView": 1,
      "byteOffset": 122928,
      "componentType": 5126,
      "count": 15366,
      "max": [
        2.0988197326660156,
        3.7373733520507813
      ],
      "min": [
        -1.76350736618042,
        -1.4487874507904053
      ],
      "type": "VEC2"
    },
    {
      "bufferView": 0,
      "componentType": 5125,
      "count": 86016,
      "type": "SCALAR"
    }
  ],
  "asset": {
    "extras": {
      "author": "necmettinturkan (https://sketchfab.com/necmettinturkan)",
      "license": "CC-BY-4.0 (http://creativecommons.org/licenses/by/4.0/)",
      "source": "https://sketchfab.com/3d-models/new-3d-location-809f736c0789441dbeec5f0eb42589d8",
      "title": "New 3D Location"
    },
    "generator": "Sketchfab-15.26.0",
    "version": "2.0"
  },
  "bufferViews": [
    {
      "buffer": 0,
      "byteLength": 344064,
      "name": "floatBufferViews",
      "target": 34963
    },
    {
      "buffer": 0,
      "byteLength": 245856,
      "byteOffset": 344064,
      "byteStride": 8,
      "name": "floatBufferViews",
      "target": 34962
    },
    {
      "buffer": 0,
      "byteLength": 368784,
      "byteOffset": 589920,
      "byteStride": 12,
      "name": "floatBufferViews",
      "target": 34962
    }
  ],
  "buffers": [
    {
      "byteLength": 958704,
      "uri": "scene.bin"
    }
  ],
  "extensionsUsed": [
    "KHR_materials_specular"
  ],
  "materials": [
    {
      "doubleSided": true,
      "extensions": {
        "KHR_materials_specular": {
          "specularColorFactor": [
            1.0,
            1.0,
            1.0
          ],
          "specularFactor": 0.45535122152611934
        }
      },
      "name": "plastic_touched",
      "pbrMetallicRoughness": {
        "baseColorFactor": [
          0.678,
          0.847,
          1.0,
          1.0
        ],
        "metallicFactor": 0.0,
        "roughnessFactor": 0.28309637371241037
      }
    }
  ],
  "meshes": [
    {
      "name": "Object_0",
      "primitives": [
        {
          "attributes": {
            "NORMAL": 1,
            "POSITION": 0,
            "TEXCOORD_0": 2,
            "TEXCOORD_1": 3
          },
          "indices": 4,
          "material": 0,
          "mode": 4
        }
      ]
    }
  ],
  "nodes": [
    {
      "children": [
        1
      ],
      "matrix": [
        1.0,
        0.0,
        0.0,
        0.0,
        0.0,
        2.220446049250313e-16,
        -1.0,
        0.0,
        0.0,
        1.0,
        2.220446049250313e-16,
        0.0,
        0.0,
        0.0,
        0.0,
        1.0
      ],
      "name": "Sketchfab_model"
    },
    {
      "children": [
        2
      ],
      "name": "root"
    },
    {
      "children": [
        3
      ],
      "matrix": [
        1.0,
        0.0,
        0.0,
        0.0,
        0.0,
        2.220446049250313e-16,
        1.0,
        0.0,
        0.0,
        -1.0,
        2.220446049250313e-16,
        0.0,
        0.0,
        0.0,
        0.0,
        1.0
      ],
      "name": "GLTF_SceneRootNode"
    },
    {
      "children": [
        4
      ],
      "matrix": [
        1.9228839874267578,
        0.0,
        0.0,
        0.0,
        0.0,
        0.0,
        1.9228839874267578,
        0.0,
        0.0,
        -1.9228839874267578,
        0.0,
        0.0,
        0.0,
        2.8278934955596924,
        0.0,
        1.0
      ],
      "name": "Circle.001_0"
    },
    {
      "mesh": 0,
      "name": "Object_4"
    }
  ],
  "scene": 0,
  "scenes": [
    {
      "name": "Sketchfab_Scene",
      "nodes": [
        0
      ]
    }
  ]
}
